<mxfile host="app.diagrams.net" modified="2023-11-02T03:49:09.371Z" agent="Mozilla/5.0 (Macintosh; Intel Mac OS X 10_15_7) AppleWebKit/605.1.15 (KHTML, like Gecko) Version/16.3 Safari/605.1.15" version="22.0.8" etag="L1Duc_XpMT-UAKlQoWgt" type="github">
  <diagram name="Page-1" id="E8AeCMWw3gYSySnyamw1">
    <mxGraphModel>
      <root>
        <mxCell id="0" />
        <mxCell id="1" parent="0" />
      </root>
    </mxGraphModel>
  </diagram>
</mxfile>
